<?xml version="1.0" encoding="UTF-8"?>
<svg width="30px" height="15px" viewBox="0 0 120 60" version="1.1" xmlns="http://www.w3.org/2000/svg" xmlns:xlink="http://www.w3.org/1999/xlink">
    <title>endless-clouds</title>
    <g id="Page-1" stroke="none" stroke-width="1" fill="none" fill-rule="evenodd">
        <g id="endless-clouds" fill="#E1000D" fill-rule="nonzero">
            <path d="M120,55.7148686 L120,60.0005829 L103.392857,60.0005829 C108.321429,57.2791544 113.978571,55.7148686 120,55.7148686 Z M64.2857143,60.0005829 C64.2857143,57.6336483 62.3669346,55.7148686 60,55.7148686 C57.6330654,55.7148686 55.7142857,57.6336483 55.7142857,60.0005829 L46.95,60.0005829 C36.7182369,43.9737841 19.0143941,34.2774757 0,34.2862972 L0,30.0005829 C1.43571429,30.0005829 2.87142857,30.0434401 4.28571429,30.1505829 L4.28571429,30.0005829 C4.28571429,27.6336483 2.36693464,25.7148686 0,25.7148686 L0,21.4291544 C4.40198852,21.4290991 8.08837258,24.7635168 8.52857143,29.1434401 C10.2905043,26.2212127 12.2977352,23.4541016 14.5285714,20.8720115 C11.3872425,15.8787363 5.89921219,12.8514158 0,12.8577258 L0,8.5720115 C6.96251968,8.56661909 13.492718,11.9476153 17.5071429,17.6362972 C19.5214286,15.6005829 21.7071429,13.7148686 24,12.0005829 C18.3388177,4.44107853 9.44431288,-0.00617386786 0,0.000582931 L16.6071429,0.000582931 C20.8928571,2.35772579 24.6,5.63629722 27.5357143,9.53629722 C29.9357143,7.99344007 32.4642857,6.60058293 35.1,5.40058293 C33.7496299,3.4809854 32.2446193,1.67497272 30.6,0.000582931 L36.3857143,0.000582931 C37.35,1.20058293 38.2714286,2.44344007 39.15,3.72915436 C41.9357143,2.70058293 44.7857143,1.86486865 47.7214286,1.26486865 C47.4857143,0.836297217 47.2285714,0.407725788 46.95,0.000582931 L55.7142857,0.000582931 L55.7142857,0.150582931 C58.5678774,-0.0508743965 61.4321226,-0.0508743965 64.2857143,0.150582931 L64.2857143,0.000582931 L73.05,0.000582931 L72.2571429,1.26486865 C75.2142857,1.86486865 78.0857143,2.70058293 80.85,3.72915436 C81.7071429,2.44344007 82.65,1.20058293 83.6357143,0.000582931 L89.4,0.000582931 C87.7553807,1.67497272 86.2503701,3.4809854 84.9,5.40058293 C87.5357143,6.60058293 90.0642857,7.9720115 92.4857143,9.53629722 C95.4045658,5.62067489 99.1224484,2.37026665 103.392857,0.000582931 L120,0.000582931 C110.185714,0.000582931 101.464286,4.71486865 96,12.0005829 C98.2928571,13.7148686 100.478571,15.6005829 102.492857,17.6362972 C106.507282,11.9476153 113.03748,8.56661909 120,8.5720115 L120,12.8577258 C114.108404,12.8587864 108.630132,15.8851881 105.492857,20.8720115 C107.7,23.4434401 109.714286,26.2291544 111.471429,29.1434401 C111.911627,24.7635168 115.598011,21.4290991 120,21.4291544 L120,25.7148686 C118.836885,25.7141559 117.723433,26.1862175 116.915251,27.0226859 C116.10707,27.859154 115.673576,28.9881802 115.714286,30.1505829 C117.140651,30.0502503 118.57011,30.0002191 120,30.0005829 L120,34.2862972 C100.285714,34.2862972 82.9285714,44.5291544 73.05,60.0005829 L64.2857143,60.0005829 Z M16.6071429,60.0005829 L1.77635684e-15,60.0005829 L1.77635684e-15,55.7148686 C6.02142857,55.7148686 11.7,57.2791544 16.6071429,60.0005829 Z M120,42.8577258 L120,47.1434401 C108,47.1434401 97.1785714,52.0720115 89.4,60.0005829 L83.6142857,60.0005829 C92.2714286,49.5220115 105.364286,42.8577258 120,42.8577258 Z M36.3642857,60.0005829 L30.6,60.0005829 C22.8214286,52.0720115 12,47.1434401 0,47.1434401 L0,42.8577258 C14.6357143,42.8577258 27.7285714,49.5220115 36.3642857,60.0005829 Z M68.5285714,59.1434401 C70.2905044,56.2212127 72.2977352,53.4541016 74.5285714,50.8720115 C71.3921745,45.8773216 65.9085032,42.8455886 60.0107143,42.8455886 C54.1129254,42.8455886 48.6292541,45.8773216 45.4928571,50.8720115 C47.7,53.4434401 49.7142857,56.2291544 51.4714286,59.1434401 C51.9111139,54.7630921 55.5976404,51.4280823 60,51.4280823 C64.4023596,51.4280823 68.0888861,54.7630921 68.5285714,59.1434401 L68.5285714,59.1434401 Z M99.15,33.7291544 C101.935714,32.7005829 104.785714,31.8648686 107.721429,31.2648686 C97.6509381,14.5126331 79.5354407,4.26585884 59.9892857,4.26585884 C40.4431307,4.26585884 22.3276333,14.5126331 12.2571429,31.2648686 C15.2142857,31.8648686 18.0857143,32.7005829 20.85,33.7291544 C29.591217,20.6602086 44.277207,12.8147897 60,12.8147897 C75.722793,12.8147897 90.408783,20.6602086 99.15,33.7291544 L99.15,33.7291544 Z M87.5142857,39.5362972 C89.9357143,37.9934401 92.4428571,36.6005829 95.1,35.4005829 C87.0910791,23.9342456 73.9864114,17.1026807 60,17.1026807 C46.0135886,17.1026807 32.9089209,23.9342456 24.9,35.4005829 C27.5357143,36.6005829 30.0642857,37.9720115 32.4857143,39.5362972 C38.9440354,30.8191807 49.1511276,25.6781733 60,25.6781733 C70.8488724,25.6781733 81.0559646,30.8191807 87.5142857,39.5362972 L87.5142857,39.5362972 Z M77.5071429,47.6362972 C79.5214286,45.6005829 81.7071429,43.7148686 84,42.0005829 C78.3448284,34.4302749 69.4493666,29.9719205 60,29.9719205 C50.5506334,29.9719205 41.6551716,34.4302749 36,42.0005829 C38.2928571,43.7148686 40.4785714,45.6005829 42.4928571,47.6362972 C46.5021101,41.9386981 53.0331684,38.5484771 60,38.5484771 C66.9668316,38.5484771 73.4978899,41.9386981 77.5071429,47.6362972 Z" id="Shape"></path>
        </g>
    </g>
</svg>
