<?xml version="1.0" standalone="no"?>
<!DOCTYPE svg PUBLIC "-//W3C//DTD SVG 20010904//EN"
 "http://www.w3.org/TR/2001/REC-SVG-20010904/DTD/svg10.dtd">
<svg version="1.0" xmlns="http://www.w3.org/2000/svg"
 width="250.000000pt" height="250.000000pt" viewBox="0 0 250.000000 250.000000"
 preserveAspectRatio="xMidYMid meet">
<metadata>
Created by potrace 1.14, written by Peter Selinger 2001-2017
</metadata>
<g transform="translate(0.000000,250.000000) scale(0.100000,-0.100000)"
fill="#000000" stroke="none">
<path d="M1640 1395 c-20 -24 -8 -50 27 -53 25 -2 33 1 38 18 13 40 -38 68
-65 35z"/>
<path d="M67 1388 c-11 -9 -17 -31 -19 -68 -3 -48 -6 -55 -26 -58 -14 -2 -22
-10 -22 -22 0 -12 8 -20 22 -22 20 -3 23 -10 26 -58 3 -61 18 -80 64 -80 33 0
39 25 8 35 -16 5 -20 15 -20 54 0 32 -5 53 -16 62 -14 11 -14 13 0 21 11 6 16
24 16 59 0 42 3 52 20 56 11 3 20 12 20 19 0 18 -50 19 -73 2z"/>
<path d="M2360 1386 c0 -7 9 -16 20 -19 17 -4 20 -14 20 -54 0 -27 5 -54 12
-61 9 -9 9 -15 0 -24 -7 -7 -12 -33 -12 -59 0 -39 -4 -49 -20 -54 -31 -10 -25
-35 8 -35 46 0 61 19 64 80 3 48 6 55 26 58 31 5 29 38 -3 46 -23 6 -25 11
-25 61 0 43 -4 56 -19 65 -28 15 -71 13 -71 -4z"/>
<path d="M360 1255 l0 -125 35 0 34 0 3 63 c3 54 5 62 23 62 18 0 20 -8 23
-62 3 -62 3 -63 32 -63 l30 0 0 71 c0 91 -10 109 -58 109 -21 0 -43 -5 -49
-11 -8 -8 -9 2 -6 35 l6 46 -37 0 -36 0 0 -125z"/>
<path d="M204 1340 c-5 -23 -12 -30 -30 -30 -19 0 -24 -5 -24 -25 0 -20 5 -25
25 -25 23 0 25 -3 25 -49 0 -42 4 -53 28 -71 21 -17 36 -21 65 -17 47 6 50 9
40 33 -5 13 -18 19 -38 19 -28 0 -30 3 -33 43 l-3 42 35 0 c32 0 36 3 36 25 0
22 -4 25 -35 25 -32 0 -35 2 -35 30 0 25 -4 30 -25 30 -20 0 -27 -6 -31 -30z"/>
<path d="M1218 1343 c-2 -20 -9 -29 -25 -31 -31 -5 -33 -52 -3 -52 17 0 20 -7
20 -45 0 -35 6 -52 25 -70 36 -37 115 -33 115 6 0 14 -7 19 -28 19 -37 0 -52
17 -52 57 0 32 1 33 40 33 36 0 40 3 40 25 0 23 -4 25 -40 25 -38 0 -40 2 -40
30 0 25 -4 30 -24 30 -19 0 -25 -6 -28 -27z"/>
<path d="M603 1295 c-26 -18 -46 -74 -37 -101 21 -57 88 -87 144 -64 24 10 28
15 20 30 -6 12 -17 16 -30 13 -25 -7 -70 4 -70 17 0 6 28 10 61 10 l62 0 -6
38 c-4 20 -16 45 -28 55 -26 21 -87 22 -116 2z m71 -31 c26 -10 18 -24 -14
-24 -30 0 -41 14 -17 23 6 3 13 6 14 6 1 1 8 -2 17 -5z"/>
<path d="M795 1285 c-34 -33 -34 -93 -1 -132 19 -22 32 -28 64 -28 59 0 92 34
92 92 0 59 -33 93 -90 93 -30 0 -47 -6 -65 -25z"/>
<path d="M996 1291 c-35 -39 -15 -70 69 -103 l30 -12 -32 -4 c-18 -2 -41 2
-52 8 -17 8 -22 6 -32 -11 -14 -27 -2 -36 58 -45 113 -17 158 89 48 117 -25 6
-45 16 -45 21 0 9 32 8 68 -3 8 -2 19 4 25 14 17 25 -5 37 -69 37 -38 0 -55
-5 -68 -19z"/>
<path d="M1395 1285 c-34 -33 -34 -93 -1 -132 21 -24 32 -28 75 -28 55 0 83
17 63 37 -7 7 -27 11 -45 10 -21 -2 -38 3 -46 12 -12 14 -7 16 48 16 60 0 61
0 61 29 0 15 -9 40 -21 55 -29 36 -99 37 -134 1z m93 -32 c2 -9 -7 -13 -28
-13 -28 0 -31 2 -20 15 15 18 41 16 48 -2z"/>
<path d="M1570 1285 c0 -22 4 -25 36 -25 l35 0 -3 -42 c-3 -40 -5 -43 -35 -46
-25 -2 -33 -8 -33 -23 0 -17 8 -19 90 -19 82 0 90 2 90 19 0 13 -8 21 -22 23
-21 3 -23 9 -26 71 l-3 67 -64 0 c-63 0 -65 -1 -65 -25z"/>
<path d="M1770 1220 l0 -90 30 0 c30 0 30 1 30 54 0 56 17 83 45 72 11 -4 15
-21 15 -66 l0 -60 31 0 31 0 -4 80 c-2 58 -7 84 -18 90 -21 13 -77 12 -86 -1
-4 -8 -9 -8 -17 0 -6 6 -21 11 -34 11 -22 0 -23 -3 -23 -90z"/>
<path d="M2003 1286 c-22 -19 -28 -32 -28 -64 0 -73 66 -116 140 -92 30 10 33
14 25 30 -6 12 -17 16 -30 13 -25 -7 -70 4 -70 17 0 6 27 10 60 10 54 0 60 2
60 20 0 29 -26 76 -45 84 -36 13 -84 6 -112 -18z m81 -22 c26 -10 18 -24 -14
-24 -30 0 -41 14 -17 23 6 3 13 6 14 6 1 1 8 -2 17 -5z"/>
<path d="M2190 1220 l0 -90 30 0 c29 0 30 2 30 45 0 54 25 85 70 85 25 0 30 4
30 25 0 21 -5 25 -32 25 -17 0 -40 -7 -50 -16 -16 -16 -18 -16 -24 0 -3 9 -17
16 -30 16 -24 0 -24 -2 -24 -90z"/>
</g>
</svg>
